<svg width="371" height="99" viewBox="0 0 371 99" fill="none" xmlns="http://www.w3.org/2000/svg">
<g filter="url(#filter0_d_3_156)">
<rect x="272" width="40" height="40" rx="4" fill="white"/>
<rect x="272.5" y="0.5" width="39" height="39" rx="3.5" stroke="black" stroke-opacity="0.25"/>
</g>
<path d="M301.57 13.4L297.448 26H294.316L291.544 17.468L288.682 26H285.568L281.428 13.4H284.452L287.296 22.256L290.266 13.4H292.966L295.846 22.328L298.78 13.4H301.57Z" fill="#14648C"/>
<g filter="url(#filter1_d_3_156)">
<rect x="272" y="56" width="40" height="40" rx="4" fill="white"/>
<rect x="272.5" y="56.5" width="39" height="39" rx="3.5" stroke="black" stroke-opacity="0.25"/>
</g>
<path d="M290.895 82.216C289.899 82.216 288.933 82.084 287.997 81.82C287.073 81.544 286.329 81.19 285.765 80.758L286.755 78.562C287.295 78.958 287.937 79.276 288.681 79.516C289.425 79.756 290.169 79.876 290.913 79.876C291.741 79.876 292.353 79.756 292.749 79.516C293.145 79.264 293.343 78.934 293.343 78.526C293.343 78.226 293.223 77.98 292.983 77.788C292.755 77.584 292.455 77.422 292.083 77.302C291.723 77.182 291.231 77.05 290.607 76.906C289.647 76.678 288.861 76.45 288.249 76.222C287.637 75.994 287.109 75.628 286.665 75.124C286.233 74.62 286.017 73.948 286.017 73.108C286.017 72.376 286.215 71.716 286.611 71.128C287.007 70.528 287.601 70.054 288.393 69.706C289.197 69.358 290.175 69.184 291.327 69.184C292.131 69.184 292.917 69.28 293.685 69.472C294.453 69.664 295.125 69.94 295.701 70.3L294.801 72.514C293.637 71.854 292.473 71.524 291.309 71.524C290.493 71.524 289.887 71.656 289.491 71.92C289.107 72.184 288.915 72.532 288.915 72.964C288.915 73.396 289.137 73.72 289.581 73.936C290.037 74.14 290.727 74.344 291.651 74.548C292.611 74.776 293.397 75.004 294.009 75.232C294.621 75.46 295.143 75.82 295.575 76.312C296.019 76.804 296.241 77.47 296.241 78.31C296.241 79.03 296.037 79.69 295.629 80.29C295.233 80.878 294.633 81.346 293.829 81.694C293.025 82.042 292.047 82.216 290.895 82.216Z" fill="#14648C"/>
<g filter="url(#filter2_d_3_156)">
<rect x="328" y="56" width="40" height="40" rx="4" fill="white"/>
<rect x="328.5" y="56.5" width="39" height="39" rx="3.5" stroke="black" stroke-opacity="0.25"/>
</g>
<path d="M341.558 69.4H347.282C348.65 69.4 349.856 69.664 350.9 70.192C351.956 70.708 352.772 71.44 353.348 72.388C353.936 73.336 354.23 74.44 354.23 75.7C354.23 76.96 353.936 78.064 353.348 79.012C352.772 79.96 351.956 80.698 350.9 81.226C349.856 81.742 348.65 82 347.282 82H341.558V69.4ZM347.138 79.606C348.398 79.606 349.4 79.258 350.144 78.562C350.9 77.854 351.278 76.9 351.278 75.7C351.278 74.5 350.9 73.552 350.144 72.856C349.4 72.148 348.398 71.794 347.138 71.794H344.474V79.606H347.138Z" fill="#14648C"/>
<g filter="url(#filter3_d_3_156)">
<rect x="216" y="56" width="40" height="40" rx="4" fill="white"/>
<rect x="216.5" y="56.5" width="39" height="39" rx="3.5" stroke="black" stroke-opacity="0.25"/>
</g>
<path d="M237.901 79.3H232.051L230.935 82H227.947L233.563 69.4H236.443L242.077 82H239.017L237.901 79.3ZM236.983 77.086L234.985 72.262L232.987 77.086H236.983Z" fill="#14648C"/>
<g filter="url(#filter4_d_3_156)">
<rect x="56" width="40" height="40" rx="4" fill="white"/>
<rect x="56.5" y="0.5" width="39" height="39" rx="3.5" stroke="black" stroke-opacity="0.25"/>
</g>
<path d="M76 10L84.6603 25H67.3397L76 10Z" fill="#14648C"/>
<g filter="url(#filter5_d_3_156)">
<rect x="56" y="56" width="40" height="40" rx="4" fill="white"/>
<rect x="56.5" y="56.5" width="39" height="39" rx="3.5" stroke="black" stroke-opacity="0.25"/>
</g>
<path d="M76 86L67.3397 71H84.6603L76 86Z" fill="#14648C"/>
<g filter="url(#filter6_d_3_156)">
<rect x="112" y="56" width="40" height="40" rx="4" fill="white"/>
<rect x="112.5" y="56.5" width="39" height="39" rx="3.5" stroke="black" stroke-opacity="0.25"/>
</g>
<path d="M142 76L127 84.6603V67.3397L142 76Z" fill="#14648C"/>
<g filter="url(#filter7_d_3_156)">
<rect y="56" width="40" height="40" rx="4" fill="white"/>
<rect x="0.5" y="56.5" width="39" height="39" rx="3.5" stroke="black" stroke-opacity="0.25"/>
</g>
<path d="M10 76L25 67.3397V84.6603L10 76Z" fill="#14648C"/>
<defs>
<filter id="filter0_d_3_156" x="272" y="0" width="43" height="43" filterUnits="userSpaceOnUse" color-interpolation-filters="sRGB">
<feFlood flood-opacity="0" result="BackgroundImageFix"/>
<feColorMatrix in="SourceAlpha" type="matrix" values="0 0 0 0 0 0 0 0 0 0 0 0 0 0 0 0 0 0 127 0" result="hardAlpha"/>
<feOffset dx="3" dy="3"/>
<feComposite in2="hardAlpha" operator="out"/>
<feColorMatrix type="matrix" values="0 0 0 0 0 0 0 0 0 0 0 0 0 0 0 0 0 0 0.25 0"/>
<feBlend mode="normal" in2="BackgroundImageFix" result="effect1_dropShadow_3_156"/>
<feBlend mode="normal" in="SourceGraphic" in2="effect1_dropShadow_3_156" result="shape"/>
</filter>
<filter id="filter1_d_3_156" x="272" y="56" width="43" height="43" filterUnits="userSpaceOnUse" color-interpolation-filters="sRGB">
<feFlood flood-opacity="0" result="BackgroundImageFix"/>
<feColorMatrix in="SourceAlpha" type="matrix" values="0 0 0 0 0 0 0 0 0 0 0 0 0 0 0 0 0 0 127 0" result="hardAlpha"/>
<feOffset dx="3" dy="3"/>
<feComposite in2="hardAlpha" operator="out"/>
<feColorMatrix type="matrix" values="0 0 0 0 0 0 0 0 0 0 0 0 0 0 0 0 0 0 0.25 0"/>
<feBlend mode="normal" in2="BackgroundImageFix" result="effect1_dropShadow_3_156"/>
<feBlend mode="normal" in="SourceGraphic" in2="effect1_dropShadow_3_156" result="shape"/>
</filter>
<filter id="filter2_d_3_156" x="328" y="56" width="43" height="43" filterUnits="userSpaceOnUse" color-interpolation-filters="sRGB">
<feFlood flood-opacity="0" result="BackgroundImageFix"/>
<feColorMatrix in="SourceAlpha" type="matrix" values="0 0 0 0 0 0 0 0 0 0 0 0 0 0 0 0 0 0 127 0" result="hardAlpha"/>
<feOffset dx="3" dy="3"/>
<feComposite in2="hardAlpha" operator="out"/>
<feColorMatrix type="matrix" values="0 0 0 0 0 0 0 0 0 0 0 0 0 0 0 0 0 0 0.25 0"/>
<feBlend mode="normal" in2="BackgroundImageFix" result="effect1_dropShadow_3_156"/>
<feBlend mode="normal" in="SourceGraphic" in2="effect1_dropShadow_3_156" result="shape"/>
</filter>
<filter id="filter3_d_3_156" x="216" y="56" width="43" height="43" filterUnits="userSpaceOnUse" color-interpolation-filters="sRGB">
<feFlood flood-opacity="0" result="BackgroundImageFix"/>
<feColorMatrix in="SourceAlpha" type="matrix" values="0 0 0 0 0 0 0 0 0 0 0 0 0 0 0 0 0 0 127 0" result="hardAlpha"/>
<feOffset dx="3" dy="3"/>
<feComposite in2="hardAlpha" operator="out"/>
<feColorMatrix type="matrix" values="0 0 0 0 0 0 0 0 0 0 0 0 0 0 0 0 0 0 0.25 0"/>
<feBlend mode="normal" in2="BackgroundImageFix" result="effect1_dropShadow_3_156"/>
<feBlend mode="normal" in="SourceGraphic" in2="effect1_dropShadow_3_156" result="shape"/>
</filter>
<filter id="filter4_d_3_156" x="56" y="0" width="43" height="43" filterUnits="userSpaceOnUse" color-interpolation-filters="sRGB">
<feFlood flood-opacity="0" result="BackgroundImageFix"/>
<feColorMatrix in="SourceAlpha" type="matrix" values="0 0 0 0 0 0 0 0 0 0 0 0 0 0 0 0 0 0 127 0" result="hardAlpha"/>
<feOffset dx="3" dy="3"/>
<feComposite in2="hardAlpha" operator="out"/>
<feColorMatrix type="matrix" values="0 0 0 0 0 0 0 0 0 0 0 0 0 0 0 0 0 0 0.25 0"/>
<feBlend mode="normal" in2="BackgroundImageFix" result="effect1_dropShadow_3_156"/>
<feBlend mode="normal" in="SourceGraphic" in2="effect1_dropShadow_3_156" result="shape"/>
</filter>
<filter id="filter5_d_3_156" x="56" y="56" width="43" height="43" filterUnits="userSpaceOnUse" color-interpolation-filters="sRGB">
<feFlood flood-opacity="0" result="BackgroundImageFix"/>
<feColorMatrix in="SourceAlpha" type="matrix" values="0 0 0 0 0 0 0 0 0 0 0 0 0 0 0 0 0 0 127 0" result="hardAlpha"/>
<feOffset dx="3" dy="3"/>
<feComposite in2="hardAlpha" operator="out"/>
<feColorMatrix type="matrix" values="0 0 0 0 0 0 0 0 0 0 0 0 0 0 0 0 0 0 0.25 0"/>
<feBlend mode="normal" in2="BackgroundImageFix" result="effect1_dropShadow_3_156"/>
<feBlend mode="normal" in="SourceGraphic" in2="effect1_dropShadow_3_156" result="shape"/>
</filter>
<filter id="filter6_d_3_156" x="112" y="56" width="43" height="43" filterUnits="userSpaceOnUse" color-interpolation-filters="sRGB">
<feFlood flood-opacity="0" result="BackgroundImageFix"/>
<feColorMatrix in="SourceAlpha" type="matrix" values="0 0 0 0 0 0 0 0 0 0 0 0 0 0 0 0 0 0 127 0" result="hardAlpha"/>
<feOffset dx="3" dy="3"/>
<feComposite in2="hardAlpha" operator="out"/>
<feColorMatrix type="matrix" values="0 0 0 0 0 0 0 0 0 0 0 0 0 0 0 0 0 0 0.25 0"/>
<feBlend mode="normal" in2="BackgroundImageFix" result="effect1_dropShadow_3_156"/>
<feBlend mode="normal" in="SourceGraphic" in2="effect1_dropShadow_3_156" result="shape"/>
</filter>
<filter id="filter7_d_3_156" x="0" y="56" width="43" height="43" filterUnits="userSpaceOnUse" color-interpolation-filters="sRGB">
<feFlood flood-opacity="0" result="BackgroundImageFix"/>
<feColorMatrix in="SourceAlpha" type="matrix" values="0 0 0 0 0 0 0 0 0 0 0 0 0 0 0 0 0 0 127 0" result="hardAlpha"/>
<feOffset dx="3" dy="3"/>
<feComposite in2="hardAlpha" operator="out"/>
<feColorMatrix type="matrix" values="0 0 0 0 0 0 0 0 0 0 0 0 0 0 0 0 0 0 0.25 0"/>
<feBlend mode="normal" in2="BackgroundImageFix" result="effect1_dropShadow_3_156"/>
<feBlend mode="normal" in="SourceGraphic" in2="effect1_dropShadow_3_156" result="shape"/>
</filter>
</defs>
</svg>
